<?xml version="1.0" encoding="iso-8859-1"?>
<!-- Generator: Adobe Illustrator 18.0.0, SVG Export Plug-In . SVG Version: 6.00 Build 0)  -->
<!DOCTYPE svg PUBLIC "-//W3C//DTD SVG 1.1//EN" "http://www.w3.org/Graphics/SVG/1.1/DTD/svg11.dtd">
<svg version="1.1" id="_x34_" xmlns="http://www.w3.org/2000/svg" xmlns:xlink="http://www.w3.org/1999/xlink" x="0px" y="0px"
	 viewBox="0 0 512 512" style="enable-background:new 0 0 512 512;" xml:space="preserve">
<g>
	<rect y="13.915" style="fill:#FAF3DF;" width="479.34" height="498.085"/>
	<rect x="0.011" y="25.631" style="fill:#F4E7C9;" width="479.319" height="235.726"/>
	<rect y="13.915" style="fill:#B55959;" width="479.34" height="235.741"/>
	<polygon style="opacity:0.1;fill:#FFFFFF;" points="479.34,13.915 479.34,25.62 412.629,93.314 394.212,112.058 344.689,162.235 
		321.852,185.4 258.579,249.656 247.037,261.362 208.238,300.733 206.437,302.534 181.39,327.991 179.507,329.792 3.52,508.398 
		0,512 0,13.915 	"/>
	<rect y="13.915" style="fill:#A36363;" width="479.34" height="4.584"/>
	<path style="fill:#FCF8F0;" d="M178.034,430.391v-0.409l3.356-2.701l12.851-10.232c23.656-19.481,46.003-41.5,46.003-69.658
		c0-8.922-2.128-17.271-6.631-24.556c-5.484-8.922-14.406-16.125-27.175-20.3c-8.186-2.701-17.845-4.257-29.222-4.257
		c-22.101,0-43.138,6.549-55.089,13.752l10.232,23.738l1.474,3.356c8.84-5.321,21.527-10.805,34.542-10.805
		c4.175,0,7.94,0.491,11.132,1.473c5.894,1.719,10.232,4.993,12.933,9.086c0,0,0,0,0,0.082c2.292,3.438,3.356,7.448,3.356,11.787
		c0,19.481-20.054,38.39-53.369,67.366l-22.347,20.136v23.246h123.273v-31.105H178.034z"/>
	<path style="fill:#FCF8F0;" d="M326.518,300.57l-49.604,20.382l8.431,22.919l1.473,3.929l30.45-12.933l2.865-1.228h0.491v127.857
		h43.711V300.57H326.518z"/>
	<g>
		<path style="fill:#FAECD3;" d="M162.236,164.445l-23.001-74.651H99.453L63.028,204.882h31.76l7.531-26.848h31.76l3.356,11.214
			l4.666,15.634h32.578L162.236,164.445z M106.084,158.306l6.221-23.083c1.637-6.548,3.929-17.189,5.729-24.147h0.328
			c1.801,6.958,4.093,17.272,5.893,24.147l6.057,23.083H106.084z"/>
		<path style="fill:#FAECD3;" d="M260.052,89.958v69.494c0,18.335-6.958,25.457-18.99,25.457c-11.542,0-18.744-7.694-18.744-25.457
			V89.958h-31.432v66.384c0,33.151,16.125,50.177,49.686,50.177c33.069,0,50.913-17.026,50.913-49.85V89.958H260.052z"/>
		<path style="fill:#FAECD3;" d="M370.228,138.58v20.709h16.453v24.147c-1.801,0.737-5.32,1.064-9.823,1.064
			c-14.897,0-27.421-7.285-32.169-22.265c-1.309-4.093-1.964-8.676-1.964-13.915c0-26.194,16.78-37.08,38.963-37.08
			c4.83,0,8.922,0.246,12.524,0.818c5.075,0.655,9.168,1.719,12.687,3.029l5.893-21.692c-0.082,0-0.082,0-0.163-0.082
			c-6.058-2.292-17.435-4.584-31.842-4.584c-38.718,0-71.05,19.809-71.05,59.59c0,14.324,4.011,27.339,12.114,37.08
			c1.964,2.456,4.257,4.748,6.794,6.794c11.05,8.922,26.766,13.751,48.54,13.751c14.898,0,30.941-3.029,39.126-5.566v-61.8H370.228z
			"/>
	</g>
	<g>
		<g>
			<path style="fill:#965E5E;" d="M427.628,57.472c-5.047,5.047-11.966,7.082-18.518,6.118c-4.464-0.638-8.764-2.686-12.196-6.118
				c-3.432-3.432-5.468-7.719-6.132-12.182c-0.977-6.566,1.071-13.498,6.118-18.545c5.06-5.06,11.993-7.109,18.559-6.132
				c4.463,0.665,8.75,2.7,12.183,6.132c3.432,3.432,5.481,7.733,6.118,12.196C434.723,45.493,432.689,52.412,427.628,57.472z"/>
			<path style="fill:#594B4B;" d="M433.607,45.606c-0.678-4.368-2.727-8.587-6.091-11.952c-8.492-8.493-22.249-8.493-30.741,0
				c-3.365,3.365-5.413,7.584-6.091,11.952c-1.044-6.634,0.991-13.634,6.091-18.735c8.492-8.492,22.249-8.492,30.741,0
				C432.616,31.972,434.651,38.972,433.607,45.606z"/>
			<path style="fill:#787070;" d="M425.234,13.015v46.493c0,0-0.082,0-0.082,0.082c-1.391,1.064-2.947,1.964-4.666,2.619
				c-0.491,0.164-0.982,0.409-1.473,0.573c-1.064,0.327-2.046,0.573-3.193,0.736c-1.146,0.246-2.292,0.328-3.52,0.328
				c-1.31,0-2.62-0.164-3.929-0.409c-0.982-0.164-1.964-0.41-2.947-0.737c-0.982-0.327-1.883-0.655-2.783-1.146
				c-0.982-0.409-1.882-0.982-2.783-1.637c-0.164-0.081-0.328-0.245-0.492-0.327V13.015C399.368,5.893,405.18,0,412.301,0
				c3.52,0,6.794,1.473,9.168,3.847C423.761,6.221,425.234,9.413,425.234,13.015z"/>
		</g>
		<g>
			<path style="fill:#965E5E;" d="M341.361,57.472c-5.047,5.047-11.966,7.082-18.518,6.118c-4.464-0.638-8.764-2.686-12.196-6.118
				c-3.432-3.432-5.468-7.719-6.132-12.182c-0.977-6.566,1.072-13.498,6.118-18.545c5.06-5.06,11.993-7.109,18.559-6.132
				c4.463,0.665,8.75,2.7,12.182,6.132c3.432,3.432,5.481,7.733,6.118,12.196C348.456,45.493,346.421,52.412,341.361,57.472z"/>
			<path style="fill:#594B4B;" d="M347.339,45.606c-0.678-4.368-2.727-8.587-6.091-11.952c-8.492-8.493-22.249-8.493-30.741,0
				c-3.365,3.365-5.413,7.584-6.091,11.952c-1.044-6.634,0.99-13.634,6.091-18.735c8.492-8.492,22.249-8.492,30.741,0
				C346.349,31.972,348.384,38.972,347.339,45.606z"/>
			<path style="fill:#787070;" d="M338.96,13.015v46.493c0,0-0.082,0-0.082,0.082c-1.392,1.064-2.947,1.964-4.666,2.619
				c-0.491,0.164-0.982,0.409-1.473,0.573c-1.064,0.327-2.046,0.573-3.193,0.736c-1.146,0.246-2.292,0.328-3.52,0.328
				c-1.228,0-2.374-0.082-3.52-0.328c-2.21-0.327-4.257-0.982-6.139-1.964c-0.982-0.409-1.883-0.982-2.783-1.637
				c-0.164-0.081-0.327-0.245-0.491-0.327V13.015C313.094,5.893,318.905,0,326.027,0c0.164,0,0.409,0,0.573,0.081
				c3.274,0.082,6.384,1.555,8.595,3.765C337.486,6.221,338.96,9.413,338.96,13.015z"/>
		</g>
		<g>
			<path style="fill:#965E5E;" d="M255.094,57.472c-5.047,5.047-11.966,7.082-18.518,6.118c-4.464-0.638-8.764-2.686-12.196-6.118
				c-3.432-3.432-5.468-7.719-6.132-12.182c-0.977-6.566,1.072-13.498,6.118-18.545c5.06-5.06,11.993-7.109,18.559-6.132
				c4.463,0.665,8.75,2.7,12.182,6.132c3.432,3.432,5.481,7.733,6.118,12.196C262.189,45.493,260.154,52.412,255.094,57.472z"/>
			<path style="fill:#594B4B;" d="M261.072,45.606c-0.678-4.368-2.727-8.587-6.091-11.952c-8.493-8.493-22.249-8.493-30.741,0
				c-3.365,3.365-5.413,7.584-6.091,11.952c-1.044-6.634,0.99-13.634,6.091-18.735c8.492-8.492,22.249-8.492,30.741,0
				C260.082,31.972,262.117,38.972,261.072,45.606z"/>
			<path style="fill:#787070;" d="M252.697,12.983v46.548c-3.607,2.705-8.096,4.297-12.95,4.297c-4.854,0-9.325-1.592-12.95-4.278
				V12.983c0-7.118,5.813-12.95,12.95-12.95c3.549,0,6.792,1.458,9.151,3.799C251.239,6.191,252.697,9.434,252.697,12.983z"/>
		</g>
		<g>
			<path style="fill:#965E5E;" d="M168.827,57.472c-5.047,5.047-11.966,7.082-18.518,6.118c-4.464-0.638-8.764-2.686-12.196-6.118
				c-3.432-3.432-5.468-7.719-6.132-12.182c-0.977-6.566,1.071-13.498,6.118-18.545c5.06-5.06,11.993-7.109,18.559-6.132
				c4.463,0.665,8.75,2.7,12.183,6.132c3.432,3.432,5.481,7.733,6.118,12.196C175.922,45.493,173.887,52.412,168.827,57.472z"/>
			<path style="fill:#594B4B;" d="M174.805,45.606c-0.678-4.368-2.727-8.587-6.091-11.952c-8.493-8.493-22.249-8.493-30.741,0
				c-3.365,3.365-5.413,7.584-6.091,11.952c-1.044-6.634,0.991-13.634,6.091-18.735c8.492-8.492,22.249-8.492,30.741,0
				C173.815,31.972,175.85,38.972,174.805,45.606z"/>
			<path style="fill:#787070;" d="M166.43,12.983v46.548c-3.607,2.705-8.097,4.297-12.95,4.297c-4.854,0-9.324-1.592-12.95-4.278
				V12.983c0-7.118,5.813-12.95,12.95-12.95c3.549,0,6.792,1.458,9.151,3.799C164.972,6.191,166.43,9.434,166.43,12.983z"/>
		</g>
		<g>
			<path style="fill:#965E5E;" d="M82.56,57.472c-5.047,5.047-11.966,7.082-18.518,6.118c-4.464-0.638-8.764-2.686-12.196-6.118
				c-3.432-3.432-5.468-7.719-6.132-12.182c-0.977-6.566,1.072-13.498,6.118-18.545c5.06-5.06,11.993-7.109,18.559-6.132
				c4.463,0.665,8.75,2.7,12.183,6.132c3.432,3.432,5.481,7.733,6.118,12.196C89.655,45.493,87.62,52.412,82.56,57.472z"/>
			<path style="fill:#594B4B;" d="M88.538,45.606c-0.679-4.368-2.727-8.587-6.091-11.952c-8.493-8.493-22.249-8.493-30.741,0
				c-3.365,3.365-5.413,7.584-6.092,11.952c-1.044-6.634,0.991-13.634,6.092-18.735c8.492-8.492,22.249-8.492,30.741,0
				C87.548,31.972,89.582,38.972,88.538,45.606z"/>
			<path style="fill:#787070;" d="M80.163,12.983v46.548c-3.607,2.705-8.097,4.297-12.95,4.297c-4.854,0-9.325-1.592-12.95-4.278
				V12.983c0-7.118,5.813-12.95,12.95-12.95c3.549,0,6.792,1.458,9.151,3.799C78.705,6.191,80.163,9.434,80.163,12.983z"/>
		</g>
	</g>
	<g>
		<path style="fill:#888376;" d="M176.314,427.28v-0.409l16.208-12.933c23.656-19.481,46.002-41.5,46.002-69.658
			c0-7.694-1.637-14.979-4.911-21.446c-4.747-9.495-13.097-17.271-25.375-22.1c-8.841-3.602-19.727-5.566-32.742-5.566
			c-22.101,0-43.219,6.548-55.088,13.752l11.623,27.094c0.082-0.082,0.246-0.164,0.327-0.246
			c8.922-5.239,21.446-10.559,34.297-10.559c5.894,0,10.805,0.982,14.734,2.783c5.402,2.456,9.004,6.303,11.05,10.887
			c0,0,0,0,0,0.082c1.064,2.701,1.637,5.648,1.637,8.677c0,19.481-20.055,38.39-53.369,67.366l-22.346,20.136v23.247h123.191V427.28
			H176.314z"/>
		<path style="fill:#888376;" d="M323.161,297.459l-49.604,20.382l9.905,26.849l1.883-0.819l31.432-13.342h0.491v127.857h43.711
			V297.459H323.161z"/>
	</g>
</g>
</svg>
